<svg xmlns="http://www.w3.org/2000/svg" width="300.996" height="300.998" viewBox="0 0 300.996 300.998">
  <g id="Objeto_inteligente_vectorial" data-name="Objeto inteligente vectorial" transform="translate(-315.003 -7485.999)">
    <g id="Objeto_inteligente_vectorial-2" data-name="Objeto inteligente vectorial" transform="translate(-2738.193 5945.817)">
      <path id="Trazado_11" data-name="Trazado 11" d="M3353.228,1689.734c-5.893.132-11.786.171-17.672.21-5.893.07-11.786.093-17.672.039-11.786-.062-23.565-.031-35.344-.233-11.779-.148-23.565-.349-35.344-.683a10.055,10.055,0,0,1-4.418-1.871c-.6-.411-1.2-.916-1.8-1.421.45-.645.9-1.289,1.374-1.84a10.072,10.072,0,0,1,3.781-2.951q16.934-5.055,33.961-9.806c11.328-3.238,22.711-6.258,34.078-9.372,5.676-1.576,11.375-3.075,17.082-4.534,5.7-1.483,11.4-2.982,17.121-4.379l.039-.008a.946.946,0,0,0-.528-1.817c-5.66,1.654-11.336,3.207-17.02,4.775-5.668,1.584-11.352,3.137-17.058,4.612-11.39,2.982-22.765,6.064-34.195,8.921-11.421,2.9-22.851,5.761-34.318,8.486a10.182,10.182,0,0,1-4.752-.66c-.683-.248-1.39-.575-2.1-.916.264-.738.536-1.475.846-2.127a10.1,10.1,0,0,1,2.888-3.828q15.059-9.271,30.273-18.262c10.1-6.064,20.319-11.926,30.483-17.874q7.617-4.484,15.327-8.8c5.125-2.9,10.241-5.823,15.4-8.657l.039-.016a.949.949,0,0,0-.986-1.623c-5.031,3.059-10.117,6.033-15.2,9.022s-10.164,5.963-15.288,8.867c-10.233,5.831-20.42,11.748-30.724,17.462q-15.409,8.653-30.949,17.09a10.1,10.1,0,0,1-4.76.582,21.023,21.023,0,0,1-2.205-.326c.062-.761.07-1.584.2-2.283a10.024,10.024,0,0,1,1.8-4.449q12.148-12.846,24.512-25.467c8.184-8.471,16.538-16.787,24.823-25.165q6.2-6.289,12.524-12.462c4.193-4.139,8.378-8.277,12.64-12.345l.031-.031a.947.947,0,0,0-1.367-1.312c-4.076,4.263-8.215,8.448-12.353,12.641q-6.173,6.324-12.462,12.524c-8.378,8.285-16.694,16.639-25.165,24.823q-12.648,12.345-25.467,24.512a10.025,10.025,0,0,1-4.449,1.8c-.7.132-1.522.14-2.283.2-.14-.745-.272-1.5-.334-2.205a10.1,10.1,0,0,1,.6-4.76q8.4-15.56,17.082-30.949c5.715-10.3,11.631-20.49,17.462-30.724q4.356-7.687,8.875-15.288c2.982-5.078,5.955-10.164,9.014-15.195l.016-.039a.944.944,0,1,0-1.654-.908c-2.834,5.163-5.753,10.28-8.657,15.4q-4.333,7.71-8.8,15.327c-5.948,10.171-11.81,20.382-17.874,30.483q-9.026,15.2-18.262,30.274a10.1,10.1,0,0,1-3.828,2.888c-.652.311-1.39.582-2.127.846-.334-.714-.668-1.421-.916-2.1a10.182,10.182,0,0,1-.66-4.752c2.725-11.468,5.583-22.9,8.494-34.319,2.85-11.429,5.932-22.8,8.914-34.194q2.224-8.56,4.612-17.059c1.568-5.683,3.121-11.359,4.775-17.02l.008-.039a.944.944,0,0,0-1.833-.45c-1.4,5.722-2.9,11.421-4.371,17.12s-2.966,11.406-4.542,17.082c-3.114,11.367-6.134,22.75-9.372,34.078q-4.787,17.016-9.806,33.962a10.072,10.072,0,0,1-2.951,3.781c-.551.474-1.2.924-1.84,1.374-.5-.606-1.009-1.2-1.421-1.8a10.054,10.054,0,0,1-1.871-4.418c-.334-11.779-.536-23.565-.683-35.344-.194-11.779-.171-23.557-.233-35.344-.047-5.885-.023-11.779.039-17.672.047-5.885.078-11.779.209-17.664v-.047a.947.947,0,1,0-1.894.047c.132,5.885.163,11.779.21,17.664.062,5.893.085,11.786.039,17.672-.07,11.786-.039,23.565-.241,35.344-.14,11.779-.342,23.565-.676,35.344a10.147,10.147,0,0,1-1.871,4.418c-.412.6-.916,1.2-1.421,1.8-.644-.45-1.289-.9-1.848-1.374a10.045,10.045,0,0,1-2.943-3.781c-3.378-11.29-6.615-22.618-9.806-33.962-3.246-11.328-6.266-22.711-9.379-34.078q-2.353-8.514-4.535-17.082c-1.483-5.7-2.974-11.4-4.371-17.12l-.008-.039a.946.946,0,1,0-1.817.528c1.646,5.66,3.207,11.336,4.775,17.02q2.376,8.5,4.612,17.059c2.981,11.4,6.056,22.765,8.914,34.194q4.367,17.132,8.494,34.319a10.093,10.093,0,0,1-.668,4.752c-.241.683-.574,1.39-.908,2.1-.738-.264-1.475-.536-2.135-.846a10.218,10.218,0,0,1-3.828-2.888q-9.259-15.059-18.254-30.274c-6.064-10.1-11.934-20.312-17.882-30.483q-4.472-7.617-8.8-15.327c-2.912-5.125-5.823-10.241-8.657-15.4l-.023-.039a.946.946,0,1,0-1.615.986c3.059,5.031,6.033,10.117,9.015,15.195q4.507,7.605,8.875,15.288c5.831,10.234,11.748,20.421,17.462,30.724,5.761,10.272,11.483,20.576,17.082,30.949a10,10,0,0,1,.59,4.76c-.054.707-.194,1.46-.326,2.205-.761-.062-1.584-.07-2.291-.2a10.029,10.029,0,0,1-4.441-1.8q-12.846-12.136-25.467-24.512c-8.479-8.184-16.787-16.538-25.165-24.823q-6.3-6.2-12.47-12.524c-4.13-4.193-8.277-8.378-12.345-12.641l-.031-.031a.947.947,0,0,0-1.3,1.374c4.255,4.069,8.448,8.207,12.64,12.345q6.313,6.173,12.524,12.462c8.285,8.378,16.631,16.694,24.823,25.165q12.346,12.648,24.512,25.467a10.2,10.2,0,0,1,1.8,4.449c.125.7.14,1.522.2,2.283a21.451,21.451,0,0,1-2.213.326,10.116,10.116,0,0,1-4.759-.582q-15.549-8.409-30.941-17.09c-10.3-5.715-20.49-11.631-30.731-17.462q-7.687-4.356-15.28-8.867c-5.078-2.989-10.164-5.963-15.2-9.022l-.031-.016a.945.945,0,1,0-.916,1.654c5.171,2.834,10.288,5.753,15.413,8.657q7.7,4.333,15.319,8.8c10.171,5.948,20.389,11.81,30.491,17.874q15.2,9.026,30.266,18.262a10.035,10.035,0,0,1,2.9,3.828c.311.652.574,1.39.846,2.127-.714.342-1.421.668-2.112.916a10.169,10.169,0,0,1-4.752.66c-11.46-2.725-22.9-5.583-34.311-8.486-11.429-2.857-22.8-5.94-34.2-8.921-5.7-1.475-11.383-3.028-17.058-4.612-5.676-1.568-11.359-3.121-17.012-4.775l-.039-.008a.943.943,0,1,0-.45,1.832c5.722,1.4,11.421,2.9,17.12,4.379,5.707,1.46,11.406,2.958,17.082,4.534,11.359,3.114,22.75,6.134,34.078,9.372q17,4.787,33.961,9.806a10.074,10.074,0,0,1,3.781,2.951,21.764,21.764,0,0,1,1.366,1.84c-.6.5-1.2,1.009-1.793,1.421a10.092,10.092,0,0,1-4.418,1.871c-11.786.334-23.565.536-35.344.683-11.779.2-23.565.171-35.344.233-5.893.054-11.779.031-17.672-.039-5.885-.039-11.779-.078-17.672-.21h-.039a.948.948,0,0,0,.039,1.895c5.893-.132,11.786-.163,17.672-.21,5.893-.062,11.779-.085,17.672-.039,11.779.07,23.565.039,35.344.241,11.779.14,23.557.342,35.344.676a10.187,10.187,0,0,1,4.418,1.871c.6.411,1.2.916,1.793,1.421a21.934,21.934,0,0,1-1.366,1.848,10.049,10.049,0,0,1-3.781,2.943c-11.3,3.377-22.625,6.615-33.961,9.806-11.328,3.246-22.719,6.266-34.078,9.379q-8.513,2.353-17.082,4.534c-5.7,1.483-11.4,2.974-17.12,4.371l-.039.008a.946.946,0,1,0,.528,1.817c5.653-1.646,11.336-3.207,17.012-4.775q8.513-2.376,17.058-4.6c11.4-2.989,22.773-6.064,34.2-8.921q17.12-4.368,34.311-8.494a10.082,10.082,0,0,1,4.752.668c.691.241,1.4.575,2.112.908-.272.738-.536,1.475-.846,2.135a10.157,10.157,0,0,1-2.9,3.828q-15.048,9.259-30.266,18.254c-10.1,6.064-20.319,11.934-30.491,17.881q-7.617,4.472-15.319,8.8c-5.125,2.912-10.241,5.823-15.413,8.657l-.031.023a.944.944,0,0,0,.979,1.615c5.039-3.059,10.125-6.033,15.2-9.014q7.605-4.507,15.28-8.867c10.241-5.839,20.428-11.755,30.731-17.47,10.272-5.761,20.576-11.484,30.941-17.082a10.015,10.015,0,0,1,4.759-.59c.707.054,1.46.194,2.213.326-.062.769-.077,1.584-.2,2.291a10.21,10.21,0,0,1-1.8,4.441q-12.147,12.846-24.512,25.475c-8.191,8.471-16.538,16.779-24.823,25.157q-6.2,6.3-12.524,12.47c-4.192,4.131-8.385,8.277-12.64,12.346l-.031.031a.945.945,0,0,0,1.367,1.3c4.069-4.255,8.215-8.448,12.345-12.641q6.185-6.312,12.47-12.524c8.378-8.285,16.686-16.631,25.165-24.823q12.648-12.345,25.467-24.512a10.212,10.212,0,0,1,4.441-1.8c.707-.124,1.522-.14,2.291-.2.132.753.272,1.506.326,2.213a10.017,10.017,0,0,1-.59,4.76c-5.6,10.365-11.321,20.669-17.082,30.941-5.715,10.3-11.631,20.49-17.462,30.732q-4.367,7.687-8.875,15.28c-2.981,5.078-5.955,10.164-9.015,15.2l-.023.039a.947.947,0,0,0,1.662.908c2.834-5.171,5.746-10.288,8.657-15.412q4.332-7.7,8.8-15.319c5.948-10.172,11.818-20.389,17.882-30.491q9.026-15.2,18.254-30.266a10.153,10.153,0,0,1,3.828-2.9c.66-.311,1.4-.574,2.135-.839a22.039,22.039,0,0,1,.908,2.1,10.08,10.08,0,0,1,.668,4.752q-4.1,17.19-8.494,34.311c-2.857,11.429-5.932,22.8-8.914,34.2q-2.225,8.549-4.612,17.058c-1.568,5.676-3.129,11.359-4.775,17.012l-.016.039a.947.947,0,1,0,1.84.45c1.4-5.722,2.888-11.421,4.371-17.121q2.19-8.56,4.535-17.082c3.114-11.359,6.134-22.75,9.379-34.078,3.191-11.336,6.429-22.664,9.806-33.962a10.045,10.045,0,0,1,2.943-3.781c.559-.474,1.2-.924,1.848-1.366.5.6,1.009,1.2,1.421,1.794a10.184,10.184,0,0,1,1.871,4.418c.334,11.786.536,23.565.676,35.344.2,11.779.171,23.565.241,35.344.046,5.893.023,11.779-.039,17.672-.047,5.893-.078,11.779-.21,17.672v.039a.947.947,0,0,0,1.894-.039c-.132-5.893-.163-11.779-.209-17.672-.062-5.893-.085-11.779-.039-17.672.062-11.779.039-23.565.233-35.344.148-11.779.35-23.557.683-35.344a10.091,10.091,0,0,1,1.871-4.418c.411-.6.916-1.2,1.421-1.794a21.7,21.7,0,0,1,1.84,1.366,10.073,10.073,0,0,1,2.951,3.781q5.054,16.946,9.806,33.962c3.238,11.328,6.258,22.719,9.372,34.078,1.576,5.676,3.075,11.375,4.542,17.082s2.974,11.4,4.371,17.121l.008.039a.946.946,0,0,0,1.817-.528c-1.654-5.653-3.207-11.336-4.775-17.012q-2.376-8.514-4.612-17.058c-2.981-11.4-6.064-22.773-8.914-34.2-2.912-11.414-5.769-22.851-8.494-34.311a10.169,10.169,0,0,1,.66-4.752,22.143,22.143,0,0,1,.916-2.1c.738.264,1.475.528,2.127.839a10.034,10.034,0,0,1,3.828,2.9q9.271,15.048,18.262,30.266c6.064,10.1,11.926,20.319,17.874,30.491q4.484,7.617,8.8,15.319c2.9,5.125,5.823,10.241,8.657,15.412l.016.031a.947.947,0,0,0,1.623-.978c-3.059-5.039-6.033-10.125-9.014-15.2q-4.507-7.605-8.875-15.28c-5.831-10.241-11.748-20.428-17.462-30.732q-8.654-15.409-17.082-30.941a10.11,10.11,0,0,1-.6-4.76c.062-.706.194-1.46.334-2.213.761.062,1.584.078,2.283.2a10.208,10.208,0,0,1,4.449,1.8q12.846,12.148,25.467,24.512c8.471,8.191,16.787,16.538,25.165,24.823q6.289,6.2,12.462,12.524c4.139,4.193,8.277,8.385,12.353,12.641l.023.031a.947.947,0,1,0,1.312-1.366c-4.263-4.069-8.448-8.215-12.64-12.346q-6.324-6.184-12.524-12.47c-8.284-8.378-16.639-16.686-24.823-25.157q-12.345-12.648-24.512-25.475a10.031,10.031,0,0,1-1.8-4.441c-.132-.707-.14-1.522-.2-2.291.745-.132,1.5-.272,2.205-.326a10,10,0,0,1,4.76.59c10.373,5.6,20.677,11.321,30.949,17.082,10.3,5.714,20.49,11.631,30.724,17.47q7.687,4.356,15.288,8.867c5.078,2.982,10.164,5.955,15.2,9.014l.039.023a.947.947,0,1,0,.908-1.662c-5.163-2.834-10.28-5.745-15.4-8.657q-7.7-4.333-15.327-8.8c-10.164-5.948-20.382-11.817-30.483-17.881q-15.2-9.026-30.273-18.254a10.221,10.221,0,0,1-2.888-3.828c-.31-.66-.582-1.4-.846-2.135.714-.334,1.421-.668,2.1-.908a10.1,10.1,0,0,1,4.752-.668q17.2,4.1,34.318,8.494c11.429,2.857,22.8,5.932,34.195,8.921q8.56,2.213,17.058,4.6c5.684,1.568,11.359,3.129,17.02,4.775l.039.016a.947.947,0,0,0,.45-1.84c-5.722-1.4-11.421-2.888-17.121-4.371q-8.56-2.189-17.082-4.534c-11.367-3.114-22.75-6.134-34.078-9.379-11.344-3.191-22.672-6.429-33.961-9.806a10.047,10.047,0,0,1-3.781-2.943c-.474-.559-.924-1.2-1.374-1.84.606-.512,1.2-1.017,1.8-1.429a10.148,10.148,0,0,1,4.418-1.871c11.779-.334,23.565-.536,35.344-.676,11.779-.2,23.557-.171,35.344-.241,5.885-.047,11.779-.023,17.672.039,5.885.047,11.779.078,17.672.21h.039a.948.948,0,0,0-.039-1.895Z"/>
    </g>
    <path id="Color_Overlay" data-name="Color Overlay" d="M464.553,7786.072v-.039c.133-5.892.164-11.778.211-17.67s.084-11.778.039-17.672c-.07-11.779-.039-23.565-.242-35.343-.139-11.779-.34-23.559-.674-35.343a10.2,10.2,0,0,0-1.872-4.419c-.41-.6-.917-1.2-1.421-1.794-.645.444-1.288.893-1.847,1.366a10.038,10.038,0,0,0-2.943,3.781c-3.377,11.3-6.615,22.627-9.807,33.962-3.246,11.329-6.265,22.718-9.379,34.079q-2.354,8.513-4.536,17.083c-1.481,5.7-2.972,11.4-4.37,17.12a.948.948,0,1,1-1.841-.45l.016-.039c1.646-5.654,3.207-11.337,4.774-17.012q2.377-8.513,4.612-17.059c2.982-11.4,6.056-22.773,8.913-34.2q4.368-17.123,8.5-34.312a10.082,10.082,0,0,0-.668-4.75,21.93,21.93,0,0,0-.909-2.1c-.737.264-1.475.528-2.134.838a10.138,10.138,0,0,0-3.828,2.9q-9.26,15.047-18.255,30.266c-6.064,10.1-11.933,20.319-17.882,30.491q-4.47,7.616-8.8,15.32c-2.912,5.124-5.824,10.24-8.657,15.412a.947.947,0,0,1-1.661-.909l.023-.039c3.058-5.039,6.033-10.124,9.013-15.2q4.509-7.6,8.876-15.28c5.83-10.241,11.747-20.428,17.462-30.731,5.761-10.271,11.483-20.577,17.082-30.94a10.034,10.034,0,0,0,.59-4.761c-.055-.708-.2-1.46-.326-2.212-.77.061-1.585.076-2.29.2a10.219,10.219,0,0,0-4.442,1.8q-12.845,12.148-25.466,24.512c-8.48,8.19-16.787,16.537-25.165,24.822q-6.3,6.2-12.47,12.525c-4.129,4.192-8.276,8.386-12.345,12.64a.944.944,0,0,1-1.366-1.3l.031-.031c4.254-4.068,8.448-8.216,12.64-12.347q6.311-6.182,12.523-12.468c8.286-8.378,16.633-16.686,24.823-25.157q12.347-12.646,24.513-25.474a10.216,10.216,0,0,0,1.8-4.442c.123-.706.139-1.522.2-2.291-.752-.131-1.507-.272-2.212-.327a10.032,10.032,0,0,0-4.761.59c-10.366,5.6-20.668,11.321-30.94,17.083-10.3,5.714-20.491,11.632-30.731,17.469q-7.689,4.356-15.281,8.867c-5.079,2.982-10.164,5.957-15.2,9.015a.944.944,0,1,1-.979-1.614l.031-.023c5.171-2.834,10.287-5.746,15.411-8.658q7.7-4.332,15.32-8.8c10.172-5.947,20.389-11.818,30.491-17.88q15.2-9.029,30.266-18.255a10.16,10.16,0,0,0,2.9-3.829c.311-.661.575-1.4.846-2.134-.715-.334-1.421-.668-2.113-.909a10.082,10.082,0,0,0-4.751-.668q-17.19,4.1-34.311,8.5c-11.429,2.857-22.8,5.931-34.2,8.921q-8.548,2.21-17.059,4.6c-5.675,1.569-11.358,3.131-17.012,4.776a.946.946,0,1,1-.528-1.817l.039-.008c5.722-1.4,11.421-2.889,17.12-4.372q8.563-2.187,17.082-4.534c11.358-3.113,22.75-6.132,34.079-9.378,11.335-3.191,22.664-6.43,33.962-9.807a10.053,10.053,0,0,0,3.782-2.943,22.506,22.506,0,0,0,1.366-1.847c-.6-.506-1.2-1.01-1.794-1.423a10.189,10.189,0,0,0-4.419-1.87c-11.786-.334-23.565-.536-35.343-.676-11.778-.2-23.565-.17-35.343-.24-5.894-.047-11.778-.023-17.673.039-5.884.047-11.778.078-17.671.209a.947.947,0,0,1-.039-1.894h.039c5.892.133,11.786.17,17.671.209,5.894.07,11.778.094,17.673.039,11.778-.062,23.565-.031,35.343-.232,11.778-.148,23.557-.35,35.343-.684a10.1,10.1,0,0,0,4.419-1.87c.6-.413,1.2-.917,1.794-1.421a21.981,21.981,0,0,0-1.366-1.841,10.1,10.1,0,0,0-3.782-2.951q-16.947-5.054-33.962-9.807c-11.329-3.238-22.72-6.257-34.079-9.371-5.675-1.577-11.374-3.074-17.082-4.534-5.7-1.483-11.4-2.982-17.12-4.379a.944.944,0,1,1,.449-1.833l.039.008c5.654,1.655,11.337,3.207,17.012,4.776s11.36,3.136,17.059,4.612c11.4,2.98,22.773,6.064,34.2,8.919,11.413,2.906,22.851,5.761,34.311,8.487a10.171,10.171,0,0,0,4.751-.66c.692-.249,1.4-.575,2.113-.915-.272-.738-.535-1.475-.846-2.128a10.053,10.053,0,0,0-2.9-3.829q-15.047-9.269-30.266-18.261c-10.1-6.064-20.319-11.927-30.491-17.874q-7.616-4.485-15.32-8.806c-5.124-2.9-10.24-5.822-15.411-8.658a.945.945,0,1,1,.917-1.653l.031.016c5.038,3.061,10.123,6.033,15.2,9.023s10.154,5.962,15.281,8.867c10.24,5.832,20.428,11.747,30.731,17.461q15.408,8.654,30.94,17.09a10.133,10.133,0,0,0,4.761.583,21.332,21.332,0,0,0,2.212-.327c-.063-.76-.078-1.583-.2-2.283a10.207,10.207,0,0,0-1.8-4.45q-12.148-12.845-24.513-25.466c-8.19-8.472-16.537-16.787-24.823-25.165q-6.194-6.288-12.523-12.461c-4.192-4.139-8.386-8.278-12.64-12.347a.947.947,0,0,1,1.3-1.374l.031.031c4.069,4.262,8.216,8.448,12.345,12.64q6.185,6.326,12.47,12.525c8.378,8.284,16.686,16.639,25.165,24.824q12.646,12.344,25.466,24.51a10.028,10.028,0,0,0,4.442,1.8c.706.133,1.528.141,2.29.2.131-.747.272-1.5.326-2.207a10.009,10.009,0,0,0-.59-4.759c-5.6-10.373-11.321-20.678-17.082-30.95-5.714-10.3-11.632-20.491-17.462-30.724q-4.368-7.686-8.876-15.288c-2.98-5.077-5.955-10.164-9.013-15.195a.946.946,0,1,1,1.614-.987l.023.039c2.834,5.164,5.746,10.28,8.657,15.406q4.333,7.709,8.8,15.326c5.949,10.172,11.818,20.381,17.882,30.483q9.026,15.2,18.255,30.273a10.2,10.2,0,0,0,3.828,2.889c.659.311,1.4.582,2.134.846.334-.713.668-1.421.909-2.1a10.107,10.107,0,0,0,.668-4.753q-4.1-17.2-8.5-34.319c-2.857-11.429-5.931-22.8-8.913-34.194q-2.225-8.56-4.612-17.059c-1.567-5.683-3.129-11.358-4.774-17.02a.946.946,0,0,1,1.817-.528l.008.039c1.4,5.722,2.888,11.421,4.37,17.122q2.19,8.56,4.536,17.081c3.113,11.368,6.133,22.75,9.379,34.079,3.191,11.343,6.43,22.672,9.807,33.961a10.036,10.036,0,0,0,2.943,3.782c.559.473,1.2.924,1.847,1.374.5-.606,1.01-1.2,1.421-1.8a10.151,10.151,0,0,0,1.872-4.417c.334-11.778.535-23.564.674-35.345.2-11.778.172-23.557.242-35.343.045-5.884.021-11.778-.039-17.67s-.078-11.778-.211-17.665a.948.948,0,1,1,1.9-.047v.047c-.133,5.886-.164,11.778-.209,17.665-.063,5.892-.086,11.786-.039,17.67.061,11.787.039,23.565.233,35.343.147,11.781.35,23.567.684,35.345a10.053,10.053,0,0,0,1.87,4.417c.412.6.917,1.2,1.421,1.8.645-.45,1.29-.9,1.841-1.374a10.074,10.074,0,0,0,2.949-3.782c3.371-11.29,6.615-22.619,9.807-33.961,3.238-11.329,6.26-22.71,9.373-34.079,1.575-5.675,3.074-11.374,4.542-17.081s2.974-11.4,4.372-17.122a.944.944,0,0,1,1.833.452l-.008.037c-1.655,5.662-3.207,11.337-4.776,17.02s-3.129,11.352-4.612,17.059c-2.98,11.4-6.064,22.766-8.913,34.194-2.912,11.423-5.769,22.852-8.493,34.319a10.168,10.168,0,0,0,.659,4.753c.25.682.582,1.39.917,2.1.739-.264,1.475-.536,2.128-.846a10.073,10.073,0,0,0,3.826-2.889q9.272-15.059,18.263-30.273c6.064-10.1,11.927-20.311,17.874-30.483q4.485-7.616,8.8-15.326c2.9-5.126,5.824-10.242,8.657-15.406a.943.943,0,1,1,1.653.909l-.016.039c-3.058,5.031-6.031,10.118-9.013,15.195q-4.509,7.6-8.874,15.288c-5.832,10.233-11.749,20.42-17.464,30.724q-8.654,15.407-17.08,30.95a10.08,10.08,0,0,0-.6,4.759c.063.708.193,1.46.334,2.207.76-.062,1.583-.07,2.283-.2a10.024,10.024,0,0,0,4.448-1.8q12.846-12.136,25.468-24.51c8.47-8.185,16.785-16.54,25.163-24.824q6.291-6.2,12.462-12.525c4.139-4.192,8.276-8.378,12.353-12.64a.947.947,0,1,1,1.366,1.313l-.031.029c-4.262,4.069-8.446,8.208-12.64,12.347q-6.323,6.171-12.523,12.461c-8.284,8.378-16.639,16.693-24.823,25.165q-12.344,12.649-24.513,25.466a10.021,10.021,0,0,0-1.8,4.45c-.133.7-.141,1.522-.2,2.283a20.923,20.923,0,0,0,2.206.327,10.112,10.112,0,0,0,4.759-.583q15.56-8.41,30.948-17.09c10.3-5.714,20.491-11.63,30.725-17.461q7.686-4.356,15.288-8.867c5.077-2.99,10.162-5.962,15.195-9.023a.949.949,0,0,1,.985,1.622l-.039.016c-5.161,2.836-10.28,5.753-15.4,8.658q-7.7,4.332-15.327,8.806c-10.162,5.947-20.381,11.81-30.483,17.874q-15.2,9.026-30.274,18.261a10.118,10.118,0,0,0-2.888,3.829c-.309.653-.58,1.39-.844,2.128.713.34,1.419.667,2.1.915a10.191,10.191,0,0,0,4.753.66c11.468-2.726,22.9-5.581,34.317-8.487,11.431-2.855,22.8-5.939,34.2-8.919,5.706-1.476,11.39-3.029,17.057-4.612,5.683-1.569,11.36-3.121,17.02-4.776a.946.946,0,1,1,.528,1.817l-.039.008c-5.722,1.4-11.421,2.9-17.12,4.379-5.707,1.46-11.405,2.957-17.082,4.534-11.366,3.113-22.75,6.132-34.077,9.371q-17.017,4.787-33.962,9.807a10.068,10.068,0,0,0-3.782,2.951,22.931,22.931,0,0,0-1.374,1.841c.606.5,1.2,1.008,1.8,1.421a10.059,10.059,0,0,0,4.419,1.87c11.778.334,23.565.536,35.343.684,11.778.2,23.557.17,35.343.232,5.886.055,11.778.031,17.673-.039,5.886-.039,11.778-.076,17.673-.209a.947.947,0,0,1,.037,1.894h-.037c-5.894-.131-11.786-.162-17.673-.209-5.894-.062-11.786-.086-17.673-.039-11.786.07-23.565.039-35.343.24-11.778.141-23.565.342-35.343.676a10.151,10.151,0,0,0-4.419,1.87c-.6.413-1.194.917-1.8,1.431.449.643.9,1.28,1.374,1.839a10.023,10.023,0,0,0,3.782,2.943c11.288,3.377,22.617,6.615,33.962,9.807,11.327,3.246,22.711,6.265,34.077,9.378q8.516,2.354,17.082,4.534c5.7,1.483,11.4,2.974,17.12,4.372a.947.947,0,0,1-.449,1.841l-.039-.016c-5.66-1.646-11.337-3.207-17.02-4.776q-8.5-2.375-17.057-4.6c-11.392-2.99-22.765-6.064-34.2-8.921q-17.131-4.368-34.317-8.5a10.1,10.1,0,0,0-4.753.668c-.684.241-1.389.575-2.1.909.264.737.535,1.474.844,2.134a10.226,10.226,0,0,0,2.888,3.829q15.062,9.257,30.274,18.255c10.1,6.062,20.321,11.933,30.483,17.88q7.619,4.473,15.327,8.8c5.124,2.912,10.242,5.824,15.4,8.658a.946.946,0,1,1-.907,1.661l-.039-.023c-5.032-3.059-10.117-6.033-15.195-9.015q-7.607-4.506-15.288-8.867c-10.235-5.837-20.42-11.755-30.725-17.469-10.272-5.761-20.575-11.483-30.948-17.083a10.011,10.011,0,0,0-4.759-.59c-.707.055-1.46.2-2.206.327.063.768.07,1.585.2,2.291a10.029,10.029,0,0,0,1.8,4.442q12.148,12.845,24.513,25.474c8.185,8.472,16.539,16.779,24.823,25.157q6.2,6.3,12.523,12.468c4.194,4.131,8.378,8.279,12.64,12.347a.947.947,0,1,1-1.311,1.366l-.023-.031c-4.077-4.254-8.214-8.448-12.353-12.64q-6.174-6.311-12.462-12.525c-8.378-8.285-16.693-16.631-25.163-24.822q-12.649-12.347-25.468-24.512a10.214,10.214,0,0,0-4.448-1.8c-.7-.125-1.522-.141-2.283-.2-.141.752-.272,1.5-.334,2.212a10.1,10.1,0,0,0,.6,4.761q8.4,15.545,17.08,30.94c5.714,10.3,11.632,20.491,17.464,30.731q4.356,7.689,8.874,15.28c2.982,5.079,5.955,10.164,9.013,15.2a.947.947,0,0,1-1.622.979l-.016-.031c-2.834-5.171-5.753-10.288-8.657-15.412q-4.333-7.7-8.8-15.32c-5.947-10.172-11.81-20.389-17.874-30.491q-9.026-15.2-18.263-30.266a10.009,10.009,0,0,0-3.826-2.9c-.653-.311-1.389-.575-2.128-.838a22.539,22.539,0,0,0-.917,2.1,10.143,10.143,0,0,0-.659,4.75c2.724,11.46,5.581,22.9,8.493,34.312,2.849,11.429,5.933,22.8,8.913,34.2q2.225,8.548,4.612,17.059c1.569,5.675,3.121,11.358,4.776,17.012a.946.946,0,0,1-1.817.528l-.008-.039c-1.4-5.722-2.9-11.421-4.372-17.12s-2.967-11.407-4.542-17.083c-3.113-11.36-6.134-22.75-9.373-34.079-3.191-11.335-6.435-22.664-9.807-33.962a10.077,10.077,0,0,0-2.949-3.781,22.061,22.061,0,0,0-1.841-1.366c-.5.6-1.008,1.2-1.421,1.794a10.1,10.1,0,0,0-1.87,4.419c-.334,11.784-.537,23.564-.684,35.343-.193,11.778-.172,23.564-.233,35.343-.047,5.894-.023,11.778.039,17.672.045,5.892.076,11.778.209,17.67a.946.946,0,0,1-.924.964h-.029A.938.938,0,0,1,464.553,7786.072Z"/>
  </g>
</svg>
