<svg xmlns="http://www.w3.org/2000/svg" width="398" height="257.798" viewBox="0 0 398 257.798">
  <g id="Grupo_6" data-name="Grupo 6" transform="translate(-340.79 -410.666)">
    <g id="Grupo_2" data-name="Grupo 2">
      <g id="Grupo_1" data-name="Grupo 1">
        <path id="Trazado_1" data-name="Trazado 1" d="M632.888,473.569h-33.3v89.312h17.606V533.535h15.694c17.222,0,30.491-13.269,30.491-29.987S650.11,473.569,632.888,473.569Zm0,43.5H617.194v-27.05h15.694c7.531,0,13.012,5.746,13.012,13.525C645.9,511.207,640.419,517.073,632.888,517.073Z"/>
      </g>
    </g>
    <g id="Grupo_5" data-name="Grupo 5">
      <g id="Grupo_3" data-name="Grupo 3">
        <path id="Trazado_2" data-name="Trazado 2" d="M519.071,410.666v38.078H340.79v219.72H560.51V630.386H738.79V410.666ZM544.56,652.514H356.732V464.694H544.56Zm178.28-38.07H560.51v-165.7l-25.49-22.128H722.84Z"/>
      </g>
      <path id="Trazado_3" data-name="Trazado 3" d="M489.5,600.951H469.212L437.321,559.1v41.847H419.706V511.639h17.614v39.43l30.619-39.43h20.287l-33.044,43.384Z"/>
      <g id="Grupo_4" data-name="Grupo 4">
        <path id="Trazado_4" data-name="Trazado 4" d="M455.183,555.023l33.044-43.384H467.94l-30.619,39.43v-39.43H419.706v89.312h17.615V559.1l31.891,41.847H489.5Z"/>
      </g>
    </g>
  </g>
</svg>
